<svg xmlns="http://www.w3.org/2000/svg" xmlns:xlink="http://www.w3.org/1999/xlink" width="500" zoomAndPan="magnify" viewBox="0 0 375 374.999991" height="500" preserveAspectRatio="xMidYMid meet" version="1.0"><defs><clipPath id="9d840c504b"><path d="M 191 104 L 238 104 L 238 245 L 191 245 Z M 191 104 " clip-rule="nonzero"/></clipPath><clipPath id="a6b77c65cc"><path d="M 237.671875 244.789062 L 192.089844 244.960938 L 191.570312 104.480469 L 237.148438 104.308594 Z M 237.671875 244.789062 " clip-rule="nonzero"/></clipPath><clipPath id="51fc82e3cb"><path d="M 237.671875 244.789062 L 192.089844 244.960938 L 191.570312 104.582031 L 237.148438 104.414062 Z M 237.671875 244.789062 " clip-rule="nonzero"/></clipPath><clipPath id="b780429594"><path d="M 137 199 L 238 199 L 238 246 L 137 246 Z M 137 199 " clip-rule="nonzero"/></clipPath><clipPath id="dc170355c0"><path d="M 237.042969 199.535156 L 237.214844 245.113281 L 137.152344 245.488281 L 136.980469 199.90625 Z M 237.042969 199.535156 " clip-rule="nonzero"/></clipPath><clipPath id="596311100d"><path d="M 237.042969 199.535156 L 237.214844 245.113281 L 137.238281 245.488281 L 137.066406 199.90625 Z M 237.042969 199.535156 " clip-rule="nonzero"/></clipPath><clipPath id="5f34b54f35"><path d="M 158 141 L 236 141 L 236 188 L 158 188 Z M 158 141 " clip-rule="nonzero"/></clipPath><clipPath id="206bfc3165"><path d="M 235.210938 141.992188 L 235.378906 187.570312 L 158.640625 187.855469 L 158.472656 142.277344 Z M 235.210938 141.992188 " clip-rule="nonzero"/></clipPath><clipPath id="2dfdb26c50"><path d="M 235.210938 141.992188 L 235.378906 187.570312 L 158.800781 187.855469 L 158.628906 142.277344 Z M 235.210938 141.992188 " clip-rule="nonzero"/></clipPath><clipPath id="7ca0a7e874"><path d="M 20.746094 104.464844 L 66.328125 104.464844 L 66.328125 244.839844 L 20.746094 244.839844 Z M 20.746094 104.464844 " clip-rule="nonzero"/></clipPath><clipPath id="c1cea4e017"><path d="M 33.289062 199.265625 L 109.871094 199.265625 L 109.871094 244.847656 L 33.289062 244.847656 Z M 33.289062 199.265625 " clip-rule="nonzero"/></clipPath><clipPath id="3ea34ed1a3"><path d="M 78.78125 104.464844 L 124.363281 104.464844 L 124.363281 244.839844 L 78.78125 244.839844 Z M 78.78125 104.464844 " clip-rule="nonzero"/></clipPath><clipPath id="2266e27a95"><path d="M 308.664062 104.457031 L 354.242188 104.457031 L 354.242188 244.832031 L 308.664062 244.832031 Z M 308.664062 104.457031 " clip-rule="nonzero"/></clipPath><clipPath id="a404d097dd"><path d="M 265.121094 104.449219 L 341.703125 104.449219 L 341.703125 150.03125 L 265.121094 150.03125 Z M 265.121094 104.449219 " clip-rule="nonzero"/></clipPath><clipPath id="63b9a52cd7"><path d="M 250.628906 104.457031 L 296.210938 104.457031 L 296.210938 244.832031 L 250.628906 244.832031 Z M 250.628906 104.457031 " clip-rule="nonzero"/></clipPath></defs><rect x="-37.5" width="450" fill="#ffffff" y="-37.499999" height="449.999989" fill-opacity="1"/><rect x="-37.5" width="450" fill="#004aad" y="-37.499999" height="449.999989" fill-opacity="1"/><g clip-path="url(#9d840c504b)"><g clip-path="url(#a6b77c65cc)"><g clip-path="url(#51fc82e3cb)"><path fill="#ffffff" d="M 237.671875 244.789062 L 192.089844 244.960938 L 191.570312 104.65625 L 237.148438 104.488281 Z M 237.671875 244.789062 " fill-opacity="1" fill-rule="nonzero"/></g></g></g><g clip-path="url(#b780429594)"><g clip-path="url(#dc170355c0)"><g clip-path="url(#596311100d)"><path fill="#ffffff" d="M 237.042969 199.535156 L 237.214844 245.113281 L 137.152344 245.488281 L 136.980469 199.90625 Z M 237.042969 199.535156 " fill-opacity="1" fill-rule="nonzero"/></g></g></g><g clip-path="url(#5f34b54f35)"><g clip-path="url(#206bfc3165)"><g clip-path="url(#2dfdb26c50)"><path fill="#ffffff" d="M 235.210938 141.992188 L 235.378906 187.570312 L 158.820312 187.855469 L 158.648438 142.277344 Z M 235.210938 141.992188 " fill-opacity="1" fill-rule="nonzero"/></g></g></g><g clip-path="url(#7ca0a7e874)"><path fill="#ffffff" d="M 66.328125 244.839844 L 20.746094 244.839844 L 20.746094 104.539062 L 66.328125 104.539062 Z M 66.328125 244.839844 " fill-opacity="1" fill-rule="nonzero"/></g><g clip-path="url(#c1cea4e017)"><path fill="#ffffff" d="M 109.871094 199.265625 L 109.871094 244.847656 L 33.308594 244.847656 L 33.308594 199.265625 Z M 109.871094 199.265625 " fill-opacity="1" fill-rule="nonzero"/></g><g clip-path="url(#3ea34ed1a3)"><path fill="#ffffff" d="M 124.363281 244.839844 L 78.78125 244.839844 L 78.78125 104.539062 L 124.363281 104.539062 Z M 124.363281 244.839844 " fill-opacity="1" fill-rule="nonzero"/></g><g clip-path="url(#2266e27a95)"><path fill="#ffffff" d="M 308.664062 104.457031 L 354.242188 104.457031 L 354.242188 244.757812 L 308.664062 244.757812 Z M 308.664062 104.457031 " fill-opacity="1" fill-rule="nonzero"/></g><g clip-path="url(#a404d097dd)"><path fill="#ffffff" d="M 265.121094 150.03125 L 265.121094 104.449219 L 341.683594 104.449219 L 341.683594 150.03125 Z M 265.121094 150.03125 " fill-opacity="1" fill-rule="nonzero"/></g><g clip-path="url(#63b9a52cd7)"><path fill="#ffffff" d="M 250.628906 104.457031 L 296.210938 104.457031 L 296.210938 244.757812 L 250.628906 244.757812 Z M 250.628906 104.457031 " fill-opacity="1" fill-rule="nonzero"/></g></svg>