<svg xmlns="http://www.w3.org/2000/svg" xmlns:xlink="http://www.w3.org/1999/xlink" width="500" zoomAndPan="magnify" viewBox="0 0 375 374.999991" height="500" preserveAspectRatio="xMidYMid meet" version="1.0"><defs><g/><clipPath id="5cb98c0495"><path d="M 190 132 L 222 132 L 222 226 L 190 226 Z M 190 132 " clip-rule="nonzero"/></clipPath><clipPath id="d0f6de157a"><path d="M 221.476562 225.644531 L 191.125 225.757812 L 190.777344 132.21875 L 221.125 132.105469 Z M 221.476562 225.644531 " clip-rule="nonzero"/></clipPath><clipPath id="c452943162"><path d="M 221.476562 225.644531 L 191.125 225.757812 L 190.777344 132.289062 L 221.125 132.175781 Z M 221.476562 225.644531 " clip-rule="nonzero"/></clipPath><clipPath id="aa6fbc73df"><path d="M 154 195 L 222 195 L 222 227 L 154 227 Z M 154 195 " clip-rule="nonzero"/></clipPath><clipPath id="f438c47d09"><path d="M 221.058594 195.511719 L 221.171875 225.859375 L 154.542969 226.109375 L 154.429688 195.757812 Z M 221.058594 195.511719 " clip-rule="nonzero"/></clipPath><clipPath id="0320c70a23"><path d="M 221.058594 195.511719 L 221.171875 225.859375 L 154.601562 226.109375 L 154.488281 195.757812 Z M 221.058594 195.511719 " clip-rule="nonzero"/></clipPath><clipPath id="7dd61120cb"><path d="M 168 157 L 220 157 L 220 188 L 168 188 Z M 168 157 " clip-rule="nonzero"/></clipPath><clipPath id="32de22d62a"><path d="M 219.835938 157.195312 L 219.949219 187.546875 L 168.851562 187.734375 L 168.738281 157.386719 Z M 219.835938 157.195312 " clip-rule="nonzero"/></clipPath><clipPath id="24d12fdfc0"><path d="M 219.835938 157.195312 L 219.949219 187.546875 L 168.957031 187.734375 L 168.84375 157.386719 Z M 219.835938 157.195312 " clip-rule="nonzero"/></clipPath><clipPath id="6e6b655fbc"><path d="M 75.894531 132.210938 L 106.242188 132.210938 L 106.242188 225.679688 L 75.894531 225.679688 Z M 75.894531 132.210938 " clip-rule="nonzero"/></clipPath><clipPath id="d450db77fa"><path d="M 84.246094 195.335938 L 135.234375 195.335938 L 135.234375 225.683594 L 84.246094 225.683594 Z M 84.246094 195.335938 " clip-rule="nonzero"/></clipPath><clipPath id="9d780a4909"><path d="M 114.535156 132.210938 L 144.882812 132.210938 L 144.882812 225.679688 L 114.535156 225.679688 Z M 114.535156 132.210938 " clip-rule="nonzero"/></clipPath><clipPath id="fb5c2c9d00"><path d="M 268.753906 132.210938 L 299.105469 132.210938 L 299.105469 225.679688 L 268.753906 225.679688 Z M 268.753906 132.210938 " clip-rule="nonzero"/></clipPath><clipPath id="cccae87595"><path d="M 239.761719 132.207031 L 290.753906 132.207031 L 290.753906 162.558594 L 239.761719 162.558594 Z M 239.761719 132.207031 " clip-rule="nonzero"/></clipPath><clipPath id="3e2391dc61"><path d="M 230.113281 132.210938 L 260.464844 132.210938 L 260.464844 225.679688 L 230.113281 225.679688 Z M 230.113281 132.210938 " clip-rule="nonzero"/></clipPath></defs><rect x="-37.5" width="450" fill="#ffffff" y="-37.499999" height="449.999989" fill-opacity="1"/><rect x="-37.5" width="450" fill="#004aad" y="-37.499999" height="449.999989" fill-opacity="1"/><g fill="#ffffff" fill-opacity="1"><g transform="translate(75.886516, 252.475854)"><g><path d="M 15.34375 -15.34375 L 15.34375 -6.4375 C 15.34375 -4.40625 14.710938 -2.796875 13.453125 -1.609375 C 12.203125 -0.421875 10.503906 0.171875 8.359375 0.171875 C 6.191406 0.171875 4.46875 -0.421875 3.1875 -1.609375 C 1.90625 -2.796875 1.265625 -4.40625 1.265625 -6.4375 L 1.265625 -15.34375 L 5.171875 -15.34375 L 5.171875 -6.4375 C 5.171875 -5.414062 5.46875 -4.601562 6.0625 -4 C 6.65625 -3.394531 7.425781 -3.09375 8.375 -3.09375 C 9.3125 -3.09375 10.0625 -3.390625 10.625 -3.984375 C 11.1875 -4.585938 11.46875 -5.40625 11.46875 -6.4375 L 11.46875 -15.34375 Z M 15.34375 -15.34375 "/></g></g></g><g fill="#ffffff" fill-opacity="1"><g transform="translate(99.749173, 252.475854)"><g><path d="M 15.703125 0 L 12.25 0 L 5.203125 -9.453125 L 5.203125 0 L 1.53125 0 L 1.53125 -15.34375 L 4.96875 -15.34375 L 12.0625 -5.875 L 12.0625 -15.34375 L 15.703125 -15.34375 Z M 15.703125 0 "/></g></g></g><g fill="#ffffff" fill-opacity="1"><g transform="translate(124.225221, 252.475854)"><g><path d="M 12.90625 -12.28125 L 5.4375 -12.28125 L 5.4375 -8.71875 L 12.3125 -8.71875 L 12.3125 -5.65625 L 5.4375 -5.65625 L 5.4375 0 L 1.53125 0 L 1.53125 -15.34375 L 12.90625 -15.34375 Z M 12.90625 -12.28125 "/></g></g></g><g fill="#ffffff" fill-opacity="1"><g transform="translate(144.714226, 252.475854)"><g><path d="M 5.4375 -3.265625 L 11.953125 -3.265625 L 11.953125 0 L 1.53125 0 L 1.53125 -15.34375 L 5.4375 -15.34375 Z M 5.4375 -3.265625 "/></g></g></g><g fill="#ffffff" fill-opacity="1"><g transform="translate(164.239326, 252.475854)"><g><path d="M 5.4375 0 L 1.53125 0 L 1.53125 -15.34375 L 5.4375 -15.34375 Z M 5.4375 0 "/></g></g></g><g fill="#ffffff" fill-opacity="1"><g transform="translate(178.462964, 252.475854)"><g><path d="M 1.53125 -15.34375 L 8.21875 -15.34375 C 10.175781 -15.34375 11.695312 -14.878906 12.78125 -13.953125 C 13.863281 -13.023438 14.40625 -11.707031 14.40625 -10 C 14.40625 -8.195312 13.863281 -6.796875 12.78125 -5.796875 C 11.695312 -4.804688 10.175781 -4.3125 8.21875 -4.3125 L 5.4375 -4.3125 L 5.4375 0 L 1.53125 0 Z M 5.4375 -12.28125 L 5.4375 -7.390625 L 8.015625 -7.390625 C 8.878906 -7.390625 9.546875 -7.597656 10.015625 -8.015625 C 10.484375 -8.441406 10.71875 -9.054688 10.71875 -9.859375 C 10.71875 -10.648438 10.484375 -11.25 10.015625 -11.65625 C 9.546875 -12.070312 8.878906 -12.28125 8.015625 -12.28125 Z M 5.4375 -12.28125 "/></g></g></g><g fill="#ffffff" fill-opacity="1"><g transform="translate(200.616886, 252.475854)"><g/></g></g><g fill="#ffffff" fill-opacity="1"><g transform="translate(212.956539, 252.475854)"><g><path d="M 8.71875 -15.484375 C 9.863281 -15.484375 10.988281 -15.25 12.09375 -14.78125 C 13.195312 -14.3125 14.132812 -13.679688 14.90625 -12.890625 L 12.65625 -10.21875 C 12.15625 -10.832031 11.554688 -11.316406 10.859375 -11.671875 C 10.171875 -12.023438 9.484375 -12.203125 8.796875 -12.203125 C 7.578125 -12.203125 6.554688 -11.773438 5.734375 -10.921875 C 4.921875 -10.066406 4.515625 -9.015625 4.515625 -7.765625 C 4.515625 -6.472656 4.921875 -5.394531 5.734375 -4.53125 C 6.554688 -3.675781 7.578125 -3.25 8.796875 -3.25 C 9.429688 -3.25 10.097656 -3.40625 10.796875 -3.71875 C 11.492188 -4.039062 12.113281 -4.484375 12.65625 -5.046875 L 14.921875 -2.625 C 14.085938 -1.78125 13.101562 -1.101562 11.96875 -0.59375 C 10.84375 -0.0820312 9.71875 0.171875 8.59375 0.171875 C 6.28125 0.171875 4.359375 -0.578125 2.828125 -2.078125 C 1.296875 -3.585938 0.53125 -5.46875 0.53125 -7.71875 C 0.53125 -9.925781 1.3125 -11.769531 2.875 -13.25 C 4.4375 -14.738281 6.382812 -15.484375 8.71875 -15.484375 Z M 8.71875 -15.484375 "/></g></g></g><g fill="#ffffff" fill-opacity="1"><g transform="translate(235.373346, 252.475854)"><g><path d="M 8.8125 -15.484375 C 11.195312 -15.484375 13.175781 -14.738281 14.75 -13.25 C 16.332031 -11.769531 17.125 -9.914062 17.125 -7.6875 C 17.125 -5.457031 16.328125 -3.585938 14.734375 -2.078125 C 13.148438 -0.578125 11.175781 0.171875 8.8125 0.171875 C 6.445312 0.171875 4.472656 -0.570312 2.890625 -2.0625 C 1.316406 -3.5625 0.53125 -5.4375 0.53125 -7.6875 C 0.53125 -9.925781 1.316406 -11.785156 2.890625 -13.265625 C 4.472656 -14.742188 6.445312 -15.484375 8.8125 -15.484375 Z M 8.859375 -12.203125 C 7.660156 -12.203125 6.632812 -11.769531 5.78125 -10.90625 C 4.9375 -10.039062 4.515625 -8.960938 4.515625 -7.671875 C 4.515625 -6.390625 4.941406 -5.304688 5.796875 -4.421875 C 6.648438 -3.535156 7.664062 -3.09375 8.84375 -3.09375 C 10.03125 -3.09375 11.035156 -3.535156 11.859375 -4.421875 C 12.691406 -5.304688 13.109375 -6.390625 13.109375 -7.671875 C 13.109375 -8.960938 12.691406 -10.039062 11.859375 -10.90625 C 11.035156 -11.769531 10.035156 -12.203125 8.859375 -12.203125 Z M 8.859375 -12.203125 "/></g></g></g><g fill="#ffffff" fill-opacity="1"><g transform="translate(260.265621, 252.475854)"><g><path d="M 1.53125 -15.34375 L 8.140625 -15.34375 C 10.546875 -15.34375 12.503906 -14.632812 14.015625 -13.21875 C 15.523438 -11.800781 16.28125 -9.953125 16.28125 -7.671875 C 16.28125 -5.410156 15.515625 -3.566406 13.984375 -2.140625 C 12.453125 -0.710938 10.453125 0 7.984375 0 L 1.53125 0 Z M 5.4375 -12.234375 L 5.4375 -3.109375 L 8.21875 -3.109375 C 9.414062 -3.109375 10.394531 -3.53125 11.15625 -4.375 C 11.925781 -5.21875 12.3125 -6.3125 12.3125 -7.65625 C 12.3125 -9 11.910156 -10.097656 11.109375 -10.953125 C 10.304688 -11.804688 9.285156 -12.234375 8.046875 -12.234375 Z M 5.4375 -12.234375 "/></g></g></g><g fill="#ffffff" fill-opacity="1"><g transform="translate(284.325456, 252.475854)"><g><path d="M 13.546875 -12.28125 L 5.4375 -12.28125 L 5.4375 -9.234375 L 12.765625 -9.234375 L 12.765625 -6.15625 L 5.4375 -6.15625 L 5.4375 -3.0625 L 13.78125 -3.0625 L 13.78125 0 L 1.53125 0 L 1.53125 -15.34375 L 13.546875 -15.34375 Z M 13.546875 -12.28125 "/></g></g></g><g clip-path="url(#5cb98c0495)"><g clip-path="url(#d0f6de157a)"><g clip-path="url(#c452943162)"><path fill="#ffffff" d="M 221.476562 225.644531 L 191.125 225.757812 L 190.777344 132.339844 L 221.128906 132.226562 Z M 221.476562 225.644531 " fill-opacity="1" fill-rule="nonzero"/></g></g></g><g clip-path="url(#aa6fbc73df)"><g clip-path="url(#f438c47d09)"><g clip-path="url(#0320c70a23)"><path fill="#ffffff" d="M 221.058594 195.511719 L 221.171875 225.859375 L 154.542969 226.109375 L 154.429688 195.757812 Z M 221.058594 195.511719 " fill-opacity="1" fill-rule="nonzero"/></g></g></g><g clip-path="url(#7dd61120cb)"><g clip-path="url(#32de22d62a)"><g clip-path="url(#24d12fdfc0)"><path fill="#ffffff" d="M 219.835938 157.195312 L 219.949219 187.546875 L 168.972656 187.734375 L 168.859375 157.386719 Z M 219.835938 157.195312 " fill-opacity="1" fill-rule="nonzero"/></g></g></g><g clip-path="url(#6e6b655fbc)"><path fill="#ffffff" d="M 106.242188 225.679688 L 75.894531 225.679688 L 75.894531 132.261719 L 106.242188 132.261719 Z M 106.242188 225.679688 " fill-opacity="1" fill-rule="nonzero"/></g><g clip-path="url(#d450db77fa)"><path fill="#ffffff" d="M 135.234375 195.335938 L 135.234375 225.683594 L 84.257812 225.683594 L 84.257812 195.335938 Z M 135.234375 195.335938 " fill-opacity="1" fill-rule="nonzero"/></g><g clip-path="url(#9d780a4909)"><path fill="#ffffff" d="M 144.882812 225.679688 L 114.535156 225.679688 L 114.535156 132.261719 L 144.882812 132.261719 Z M 144.882812 225.679688 " fill-opacity="1" fill-rule="nonzero"/></g><g clip-path="url(#fb5c2c9d00)"><path fill="#ffffff" d="M 268.753906 132.210938 L 299.105469 132.210938 L 299.105469 225.632812 L 268.753906 225.632812 Z M 268.753906 132.210938 " fill-opacity="1" fill-rule="nonzero"/></g><g clip-path="url(#cccae87595)"><path fill="#ffffff" d="M 239.761719 162.558594 L 239.761719 132.207031 L 290.738281 132.207031 L 290.738281 162.558594 Z M 239.761719 162.558594 " fill-opacity="1" fill-rule="nonzero"/></g><g clip-path="url(#3e2391dc61)"><path fill="#ffffff" d="M 230.113281 132.210938 L 260.464844 132.210938 L 260.464844 225.632812 L 230.113281 225.632812 Z M 230.113281 132.210938 " fill-opacity="1" fill-rule="nonzero"/></g></svg>